# xmcd CD database file generated by Grip 3.2.0
# 
# Track frame offsets:
#       150
#       19566
#       36219
#       48004
#       62581
#       78678
#       96133
#       111995
#       127215
#       143119
# 
# Disc length: 2213 seconds
# 
# Revision: 2
# Processed by: cddbd v1.5.2PL0 Copyright (c) Steve Scherf et al.
# Submitted via: Grip 3.2.0
# 
DISCID=8408a30a
DTITLE=Shades of Dusk - Quiescence
DYEAR=2009
DGENRE=country
TTITLE0=Inertia...and the Aftermath
TTITLE1=An Urge to Drown
TTITLE2=Redefining the Boundaries
TTITLE3=Frailty by Design
TTITLE4=A Tangible Concept to an Abstract Subject
TTITLE5=Shall Remain Silent
TTITLE6=The Celebration of Vile Procedures
TTITLE7=Once, I Collapsed
TTITLE8=Bipolar Incognitus
TTITLE9=Sophisma (Red Rationale)
EXTD=
EXTT0=
EXTT1=
EXTT2=
EXTT3=
EXTT4=
EXTT5=
EXTT6=
EXTT7=
EXTT8=
EXTT9=
PLAYORDER=
